<?xml version="1.0" encoding="UTF-8" standalone="no"?> <svg xmlns="http://www.w3.org/2000/svg" xmlns:xlink="http://www.w3.org/1999/xlink" xmlns:serif="http://www.serif.com/" width="1123" height="590" viewBox="0 0 1123 590" version="1.1" xml:space="preserve" style="fill-rule:evenodd;clip-rule:evenodd;stroke-linejoin:round;stroke-miterlimit:2;"><g transform="matrix(1,0,0,1,-1300,0)"><g id="mkcert-for-local-dev-env-ssl" transform="matrix(1.40375,0,0,1.22917,106.813,0)"><rect x="850" y="0" width="800" height="480" style="fill:white;"></rect><g><g transform="matrix(0.995139,0,0,1.00213,454.386,3.99776)"><path d="M1190,21.989C1190,14.82 1184.87,9 1178.55,9L420.454,9C414.132,9 409,14.82 409,21.989L409,449.011C409,456.18 414.132,462 420.454,462L1178.55,462C1184.87,462 1190,456.18 1190,449.011L1190,21.989Z" style="fill:rgb(239,239,239);"></path></g><g transform="matrix(1,0,0,1,-4.83169e-13,8.94915)"><g transform="matrix(0.712378,0,0,0.813559,593.856,33.3559)"><g transform="matrix(64,0,0,64,485.958,133.96)"><path d="M0.934,-0.045L0.849,-0.055L0.849,-0.324C0.849,-0.446 0.792,-0.509 0.68,-0.509C0.611,-0.509 0.557,-0.483 0.507,-0.424C0.482,-0.48 0.432,-0.509 0.356,-0.509C0.292,-0.509 0.242,-0.487 0.196,-0.438L0.196,-0.499L0.038,-0.499L0.038,-0.454L0.123,-0.444L0.123,-0.055L0.038,-0.045L0.038,-0L0.276,-0L0.276,-0.045L0.201,-0.055L0.201,-0.391C0.236,-0.426 0.283,-0.447 0.329,-0.447C0.408,-0.447 0.447,-0.403 0.447,-0.315L0.447,-0.055L0.372,-0.045L0.372,-0L0.6,-0L0.6,-0.045L0.525,-0.055L0.525,-0.324C0.525,-0.346 0.523,-0.367 0.519,-0.385C0.554,-0.423 0.604,-0.447 0.653,-0.447C0.732,-0.447 0.771,-0.403 0.771,-0.315L0.771,-0.055L0.696,-0.045L0.696,-0L0.934,-0L0.934,-0.045Z" style="fill:rgb(53,53,53);fill-rule:nonzero;"></path></g><g transform="matrix(64,0,0,64,549.446,133.96)"><path d="M0.203,-0.055L0.203,-0.78L0.035,-0.763L0.035,-0.715L0.125,-0.715L0.125,-0.055L0.04,-0.045L0.04,-0L0.288,-0L0.288,-0.045L0.203,-0.055ZM0.305,-0.26L0.495,-0.444L0.555,-0.453L0.555,-0.5L0.313,-0.5L0.313,-0.453L0.409,-0.443L0.218,-0.25L0.401,-0.052C0.438,-0.011 0.473,-0 0.539,-0L0.562,-0L0.562,-0.047C0.517,-0.051 0.494,-0.061 0.458,-0.099L0.305,-0.26Z" style="fill:rgb(53,53,53);fill-rule:nonzero;"></path></g><g transform="matrix(64,0,0,64,586.374,133.96)"><path d="M0.407,-0.336L0.466,-0.336L0.466,-0.481C0.425,-0.499 0.366,-0.51 0.306,-0.51C0.15,-0.51 0.06,-0.406 0.06,-0.23C0.06,-0.073 0.145,0.01 0.312,0.01C0.37,0.01 0.409,0.004 0.471,-0.014L0.471,-0.072C0.425,-0.057 0.379,-0.05 0.329,-0.05C0.204,-0.05 0.14,-0.116 0.14,-0.238C0.14,-0.375 0.195,-0.449 0.3,-0.449C0.338,-0.449 0.365,-0.445 0.398,-0.433L0.407,-0.336Z" style="fill:rgb(53,53,53);fill-rule:nonzero;"></path></g><g transform="matrix(64,0,0,64,621.318,133.96)"><path d="M0.475,-0.076C0.438,-0.061 0.383,-0.052 0.33,-0.052C0.203,-0.052 0.141,-0.115 0.141,-0.239L0.497,-0.239L0.497,-0.314C0.497,-0.428 0.417,-0.51 0.293,-0.51C0.145,-0.51 0.06,-0.403 0.06,-0.231C0.06,-0.075 0.143,0.01 0.309,0.01C0.374,0.01 0.429,0.002 0.475,-0.016L0.475,-0.076ZM0.415,-0.297L0.144,-0.297C0.156,-0.401 0.202,-0.45 0.286,-0.45C0.368,-0.45 0.415,-0.398 0.415,-0.307L0.415,-0.297Z" style="fill:rgb(53,53,53);fill-rule:nonzero;"></path></g><g transform="matrix(64,0,0,64,657.606,133.96)"><path d="M0.189,-0.377L0.189,-0.5L0.04,-0.5L0.04,-0.455L0.125,-0.445L0.125,-0.055L0.04,-0.045L0.04,-0L0.318,-0L0.318,-0.045L0.203,-0.055L0.203,-0.259C0.203,-0.377 0.252,-0.442 0.34,-0.445L0.348,-0.354L0.406,-0.354L0.406,-0.504C0.388,-0.509 0.377,-0.51 0.359,-0.51C0.279,-0.51 0.219,-0.461 0.191,-0.377L0.189,-0.377Z" style="fill:rgb(53,53,53);fill-rule:nonzero;"></path></g><g transform="matrix(64,0,0,64,686.47,133.96)"><path d="M0.203,-0.445L0.339,-0.445L0.339,-0.5L0.203,-0.5L0.203,-0.674L0.125,-0.638L0.125,-0.5L0.01,-0.485L0.01,-0.445L0.125,-0.445L0.125,-0.124C0.125,-0.038 0.168,0.005 0.258,0.005C0.291,0.005 0.319,0.002 0.352,-0.01L0.352,-0.06C0.325,-0.052 0.304,-0.051 0.282,-0.051C0.227,-0.051 0.203,-0.072 0.203,-0.137L0.203,-0.445Z" style="fill:rgb(53,53,53);fill-rule:nonzero;"></path></g><g transform="matrix(64,0,0,64,709.51,133.96)"><path d="M0.695,-0.474C0.753,-0.428 0.793,-0.383 0.832,-0.326L0.877,-0.365C0.834,-0.425 0.796,-0.463 0.739,-0.508L0.695,-0.474ZM0.801,-0.542C0.859,-0.496 0.89,-0.462 0.93,-0.406L0.973,-0.444C0.929,-0.504 0.899,-0.532 0.843,-0.578L0.801,-0.542ZM0.859,-0.646L0.851,-0.709L0.844,-0.713C0.604,-0.677 0.384,-0.646 0.11,-0.616L0.122,-0.547C0.273,-0.568 0.387,-0.583 0.51,-0.601L0.591,-0.617C0.566,-0.604 0.545,-0.591 0.524,-0.577C0.441,-0.508 0.384,-0.406 0.384,-0.284C0.384,-0.042 0.601,0.015 0.801,0.015L0.817,0.015L0.819,-0.063C0.807,-0.062 0.794,-0.062 0.782,-0.062C0.627,-0.062 0.451,-0.101 0.451,-0.289C0.451,-0.404 0.506,-0.499 0.598,-0.563C0.667,-0.612 0.74,-0.631 0.855,-0.641L0.859,-0.646Z" style="fill:rgb(53,53,53);fill-rule:nonzero;"></path></g><g transform="matrix(64,0,0,64,774.15,133.96)"><path d="M0.795,-0.247L0.795,-0.493L0.799,-0.639L0.794,-0.644L0.647,-0.64L0.353,-0.64L0.206,-0.644L0.201,-0.639L0.205,-0.493L0.205,-0.167L0.201,-0.016L0.278,-0.016L0.278,-0.1L0.647,-0.1L0.794,-0.096L0.799,-0.101L0.795,-0.247ZM0.72,-0.164L0.278,-0.164L0.278,-0.575L0.72,-0.575L0.72,-0.164Z" style="fill:rgb(53,53,53);fill-rule:nonzero;"></path></g><g transform="matrix(64,0,0,64,832.39,133.96)"><path d="M0.279,-0.334L0.721,-0.334L0.873,-0.33L0.873,-0.411L0.721,-0.406L0.279,-0.406L0.127,-0.411L0.127,-0.33L0.279,-0.334Z" style="fill:rgb(53,53,53);fill-rule:nonzero;"></path></g><g transform="matrix(64,0,0,64,893.19,133.96)"><path d="M0.506,-0.581C0.509,-0.623 0.511,-0.667 0.511,-0.714L0.519,-0.763C0.486,-0.772 0.438,-0.781 0.425,-0.781C0.413,-0.781 0.403,-0.779 0.403,-0.771C0.403,-0.764 0.414,-0.755 0.435,-0.744L0.435,-0.709C0.435,-0.664 0.433,-0.621 0.43,-0.581L0.295,-0.581L0.144,-0.585L0.144,-0.512L0.295,-0.517L0.423,-0.517C0.39,-0.276 0.288,-0.142 0.12,-0.053C0.139,-0.039 0.155,-0.025 0.171,-0.004C0.348,-0.093 0.462,-0.256 0.499,-0.517L0.752,-0.517C0.753,-0.381 0.737,-0.248 0.722,-0.173C0.708,-0.102 0.682,-0.079 0.643,-0.079C0.605,-0.079 0.56,-0.088 0.519,-0.109C0.514,-0.082 0.51,-0.066 0.502,-0.044C0.545,-0.022 0.604,-0.008 0.652,-0.008C0.722,-0.008 0.77,-0.052 0.788,-0.128C0.809,-0.217 0.825,-0.374 0.825,-0.493C0.825,-0.537 0.826,-0.558 0.827,-0.58L0.822,-0.585L0.685,-0.581L0.506,-0.581Z" style="fill:rgb(53,53,53);fill-rule:nonzero;"></path></g><g transform="matrix(64,0,0,64,957.19,133.96)"><path d="M0.497,-0.078L0.486,-0.062L0.486,-0.05C0.531,-0.013 0.548,0.002 0.557,0.002C0.564,0.002 0.569,-0.003 0.581,-0.021C0.736,-0.135 0.822,-0.244 0.911,-0.399C0.892,-0.415 0.875,-0.436 0.859,-0.459C0.784,-0.301 0.681,-0.178 0.569,-0.1L0.569,-0.672L0.576,-0.72C0.529,-0.732 0.498,-0.739 0.481,-0.739C0.469,-0.739 0.464,-0.736 0.464,-0.732C0.464,-0.723 0.468,-0.719 0.497,-0.699L0.497,-0.078ZM0.344,-0.629L0.351,-0.677C0.304,-0.689 0.271,-0.696 0.254,-0.696C0.242,-0.696 0.237,-0.693 0.237,-0.689C0.237,-0.68 0.241,-0.676 0.27,-0.656L0.27,-0.489C0.27,-0.267 0.206,-0.147 0.089,-0.051C0.111,-0.036 0.127,-0.019 0.142,0.001C0.276,-0.118 0.344,-0.264 0.344,-0.494L0.344,-0.629Z" style="fill:rgb(53,53,53);fill-rule:nonzero;"></path></g><g transform="matrix(64,0,0,64,1021.19,133.96)"><path d="M0.327,-0.506L0.443,-0.502L0.447,-0.506L0.443,-0.582L0.443,-0.726L0.447,-0.803L0.443,-0.806L0.327,-0.802L0.21,-0.802L0.094,-0.806L0.09,-0.803L0.094,-0.686L0.094,-0.071L0.09,0.079L0.156,0.079L0.156,-0.506L0.327,-0.506ZM0.156,-0.555L0.156,-0.632L0.382,-0.632L0.382,-0.555L0.156,-0.555ZM0.156,-0.68L0.156,-0.753L0.382,-0.753L0.382,-0.68L0.156,-0.68ZM0.843,-0.506L0.843,-0.014C0.843,0.014 0.838,0.018 0.819,0.018C0.796,0.018 0.777,0.017 0.739,0.013C0.75,0.032 0.76,0.061 0.764,0.08L0.792,0.08C0.897,0.08 0.908,0.061 0.908,-0.006L0.905,-0.132L0.905,-0.686L0.909,-0.803L0.905,-0.806L0.789,-0.802L0.655,-0.802L0.539,-0.806L0.535,-0.803L0.539,-0.726L0.539,-0.582L0.535,-0.505L0.539,-0.502L0.655,-0.506L0.843,-0.506ZM0.6,-0.555L0.6,-0.632L0.843,-0.632L0.843,-0.555L0.6,-0.555ZM0.843,-0.68L0.6,-0.68L0.6,-0.753L0.843,-0.753L0.843,-0.68ZM0.379,-0.253L0.358,-0.253L0.208,-0.257L0.208,-0.2L0.358,-0.204L0.378,-0.204C0.37,-0.086 0.324,-0.048 0.192,-0.027C0.212,-0.009 0.223,0.007 0.235,0.029C0.369,-0.004 0.426,-0.057 0.436,-0.204L0.562,-0.204L0.562,-0.122L0.558,0.028L0.625,0.028L0.621,-0.122L0.621,-0.204L0.658,-0.204L0.808,-0.2L0.808,-0.257L0.658,-0.253L0.621,-0.253L0.621,-0.375L0.757,-0.371L0.757,-0.427L0.607,-0.423L0.392,-0.423L0.242,-0.427L0.242,-0.371L0.379,-0.375L0.379,-0.253ZM0.438,-0.253L0.438,-0.375L0.562,-0.375L0.562,-0.253L0.438,-0.253Z" style="fill:rgb(53,53,53);fill-rule:nonzero;"></path></g><g transform="matrix(64,0,0,64,1086.47,133.96)"><path d="M0.5,-0.81C0.565,-0.663 0.632,-0.562 0.731,-0.488L0.612,-0.484L0.399,-0.484L0.276,-0.488C0.357,-0.554 0.419,-0.635 0.466,-0.726C0.489,-0.733 0.493,-0.738 0.493,-0.746C0.493,-0.755 0.483,-0.766 0.435,-0.802L0.423,-0.802L0.399,-0.779L0.251,-0.779L0.111,-0.783L0.111,-0.722L0.251,-0.726L0.393,-0.726C0.369,-0.677 0.339,-0.631 0.302,-0.59C0.263,-0.626 0.222,-0.658 0.184,-0.681L0.144,-0.638C0.178,-0.617 0.224,-0.584 0.26,-0.548C0.2,-0.494 0.124,-0.45 0.029,-0.418C0.045,-0.406 0.063,-0.385 0.072,-0.369C0.143,-0.398 0.205,-0.433 0.259,-0.474L0.259,-0.429L0.355,-0.432L0.355,-0.296C0.355,-0.286 0.355,-0.277 0.354,-0.268L0.238,-0.268L0.088,-0.272L0.088,-0.211L0.238,-0.215L0.35,-0.215C0.332,-0.067 0.251,-0.001 0.05,0.01C0.068,0.029 0.081,0.052 0.091,0.071C0.305,0.042 0.393,-0.042 0.414,-0.215L0.565,-0.215L0.565,-0.021C0.565,0.048 0.586,0.055 0.75,0.055C0.912,0.055 0.934,0.037 0.94,-0.099C0.92,-0.104 0.894,-0.114 0.875,-0.125C0.875,-0.014 0.867,-0.002 0.749,-0.002C0.633,-0.002 0.629,-0.004 0.629,-0.036L0.629,-0.215L0.766,-0.215L0.916,-0.211L0.916,-0.272L0.766,-0.268L0.629,-0.268L0.629,-0.432L0.747,-0.429L0.747,-0.476C0.796,-0.442 0.852,-0.414 0.92,-0.389C0.937,-0.412 0.948,-0.426 0.971,-0.446C0.895,-0.464 0.83,-0.493 0.776,-0.531C0.818,-0.566 0.851,-0.599 0.882,-0.634C0.904,-0.632 0.921,-0.634 0.921,-0.644C0.921,-0.655 0.904,-0.668 0.849,-0.701C0.838,-0.68 0.828,-0.665 0.815,-0.647C0.796,-0.623 0.766,-0.591 0.735,-0.564C0.71,-0.586 0.687,-0.611 0.666,-0.637C0.705,-0.67 0.736,-0.701 0.765,-0.734C0.787,-0.732 0.804,-0.734 0.804,-0.744C0.804,-0.755 0.787,-0.768 0.732,-0.801C0.721,-0.78 0.711,-0.765 0.698,-0.747C0.683,-0.727 0.66,-0.703 0.636,-0.68C0.606,-0.725 0.581,-0.776 0.558,-0.832L0.5,-0.81ZM0.565,-0.433L0.565,-0.268L0.418,-0.268C0.419,-0.281 0.419,-0.295 0.419,-0.309L0.419,-0.433L0.565,-0.433Z" style="fill:rgb(53,53,53);fill-rule:nonzero;"></path></g><g transform="matrix(64,0,0,64,1151.75,133.96)"><path d="M0.531,-0.404L0.415,-0.409L0.411,-0.405L0.415,-0.329L0.415,-0.294L0.411,-0.217L0.415,-0.214L0.534,-0.218L0.6,-0.218C0.511,-0.143 0.415,-0.089 0.279,-0.053C0.296,-0.037 0.309,-0.018 0.319,0.001C0.429,-0.038 0.51,-0.078 0.588,-0.142L0.587,-0.055L0.587,-0.029L0.583,0.081L0.651,0.081L0.647,-0.029L0.647,-0.056L0.646,-0.16C0.721,-0.063 0.807,-0 0.93,0.048C0.942,0.027 0.952,0.011 0.968,-0.01C0.901,-0.029 0.84,-0.058 0.786,-0.094C0.818,-0.115 0.846,-0.136 0.876,-0.162C0.885,-0.16 0.893,-0.16 0.899,-0.16C0.908,-0.16 0.913,-0.162 0.913,-0.169C0.913,-0.175 0.909,-0.183 0.864,-0.215L0.867,-0.218L0.863,-0.294L0.863,-0.329L0.867,-0.405L0.863,-0.409L0.747,-0.404L0.531,-0.404ZM0.472,-0.354L0.805,-0.354L0.805,-0.268L0.472,-0.268L0.472,-0.354ZM0.671,-0.218L0.747,-0.218L0.843,-0.215C0.837,-0.205 0.83,-0.197 0.819,-0.186C0.8,-0.167 0.778,-0.147 0.746,-0.124C0.716,-0.149 0.687,-0.177 0.662,-0.209L0.671,-0.218ZM0.509,-0.785L0.393,-0.787L0.389,-0.783L0.393,-0.707L0.393,-0.656L0.389,-0.58L0.394,-0.576L0.509,-0.578L0.775,-0.578L0.891,-0.576L0.895,-0.58L0.891,-0.657L0.891,-0.707L0.894,-0.783L0.89,-0.787L0.774,-0.785L0.509,-0.785ZM0.593,-0.739L0.687,-0.739L0.687,-0.624L0.593,-0.624L0.593,-0.739ZM0.54,-0.739L0.54,-0.624L0.448,-0.624L0.448,-0.739L0.54,-0.739ZM0.74,-0.624L0.74,-0.739L0.836,-0.739L0.836,-0.624L0.74,-0.624ZM0.473,-0.469L0.841,-0.469L0.961,-0.465L0.961,-0.521L0.841,-0.517L0.473,-0.517L0.353,-0.521L0.353,-0.465L0.473,-0.469ZM0.235,-0.718L0.237,-0.718L0.347,-0.714L0.347,-0.774L0.237,-0.77L0.147,-0.77L0.037,-0.774L0.037,-0.714L0.147,-0.718L0.17,-0.718L0.17,-0.498L0.161,-0.498L0.051,-0.502L0.051,-0.442L0.161,-0.446L0.17,-0.446L0.17,-0.196C0.145,-0.191 0.119,-0.185 0.091,-0.18C0.068,-0.176 0.046,-0.174 0.019,-0.173C0.049,-0.097 0.057,-0.083 0.07,-0.083C0.079,-0.083 0.085,-0.095 0.086,-0.113C0.195,-0.14 0.266,-0.159 0.362,-0.186C0.361,-0.205 0.36,-0.224 0.361,-0.243C0.315,-0.231 0.275,-0.221 0.235,-0.211L0.235,-0.445L0.325,-0.442L0.325,-0.502L0.235,-0.499L0.235,-0.718Z" style="fill:rgb(53,53,53);fill-rule:nonzero;"></path></g><g transform="matrix(64,0,0,64,1217.03,133.96)"><path d="M0.682,-0.161L0.682,-0.011C0.682,0.05 0.699,0.066 0.811,0.066C0.927,0.066 0.955,0.046 0.96,-0.054C0.941,-0.061 0.917,-0.072 0.9,-0.083C0.899,0.002 0.892,0.013 0.812,0.013C0.748,0.013 0.742,0.007 0.742,-0.024L0.742,-0.161L0.764,-0.161L0.88,-0.157L0.884,-0.163L0.88,-0.237L0.88,-0.375L0.884,-0.451L0.88,-0.455L0.764,-0.451L0.536,-0.451L0.42,-0.455L0.416,-0.451L0.42,-0.375L0.42,-0.237L0.416,-0.164L0.421,-0.157L0.529,-0.161C0.525,-0.018 0.455,0.012 0.277,0.032C0.294,0.047 0.307,0.065 0.318,0.083C0.507,0.06 0.585,-0.001 0.589,-0.161L0.682,-0.161ZM0.478,-0.209L0.478,-0.283L0.822,-0.283L0.822,-0.209L0.478,-0.209ZM0.822,-0.331L0.478,-0.331L0.478,-0.403L0.822,-0.403L0.822,-0.331ZM0.492,-0.678C0.501,-0.639 0.508,-0.6 0.514,-0.56L0.498,-0.56L0.348,-0.564L0.348,-0.507L0.498,-0.511L0.812,-0.511L0.962,-0.507L0.962,-0.564L0.812,-0.56L0.768,-0.56C0.777,-0.599 0.786,-0.639 0.792,-0.679L0.932,-0.675L0.932,-0.732L0.782,-0.728L0.675,-0.728L0.675,-0.793C0.7,-0.799 0.707,-0.806 0.707,-0.814C0.707,-0.824 0.692,-0.831 0.608,-0.836C0.613,-0.812 0.615,-0.788 0.615,-0.759L0.615,-0.728L0.527,-0.728L0.377,-0.732L0.377,-0.675L0.492,-0.678ZM0.728,-0.679C0.723,-0.639 0.716,-0.599 0.707,-0.56L0.574,-0.56C0.568,-0.6 0.561,-0.64 0.552,-0.679L0.728,-0.679ZM0.223,-0.555L0.223,-0.781C0.247,-0.787 0.256,-0.794 0.256,-0.803C0.256,-0.814 0.248,-0.821 0.155,-0.828C0.16,-0.804 0.163,-0.778 0.163,-0.749L0.163,-0.555L0.14,-0.555L0.04,-0.559L0.04,-0.499L0.14,-0.503L0.163,-0.503L0.163,-0.167C0.141,-0.159 0.118,-0.152 0.094,-0.144C0.073,-0.138 0.052,-0.133 0.026,-0.128C0.062,-0.06 0.072,-0.05 0.084,-0.051C0.093,-0.052 0.096,-0.062 0.097,-0.082C0.196,-0.118 0.264,-0.146 0.34,-0.178C0.337,-0.195 0.335,-0.215 0.335,-0.231C0.297,-0.215 0.26,-0.201 0.223,-0.187L0.223,-0.503L0.23,-0.503L0.32,-0.499L0.32,-0.559L0.23,-0.555L0.223,-0.555Z" style="fill:rgb(53,53,53);fill-rule:nonzero;"></path></g><g transform="matrix(64,0,0,64,1282.31,133.96)"><path d="M0.407,-0.3C0.377,-0.246 0.367,-0.207 0.367,-0.167C0.367,-0.076 0.454,-0.028 0.655,-0.028C0.734,-0.028 0.828,-0.035 0.893,-0.045L0.888,-0.119C0.816,-0.106 0.721,-0.097 0.651,-0.097C0.489,-0.097 0.437,-0.129 0.437,-0.171C0.437,-0.21 0.446,-0.237 0.465,-0.268L0.407,-0.3ZM0.222,0.012C0.204,-0.092 0.199,-0.172 0.199,-0.28C0.199,-0.419 0.217,-0.578 0.266,-0.74C0.204,-0.755 0.185,-0.758 0.171,-0.758C0.158,-0.758 0.151,-0.755 0.151,-0.748C0.151,-0.74 0.16,-0.731 0.181,-0.72C0.145,-0.537 0.129,-0.4 0.129,-0.285C0.129,-0.173 0.134,-0.087 0.147,0.018L0.222,0.012ZM0.418,-0.547C0.503,-0.561 0.596,-0.568 0.681,-0.568C0.752,-0.568 0.798,-0.566 0.851,-0.562L0.852,-0.628C0.803,-0.633 0.755,-0.635 0.692,-0.635C0.604,-0.635 0.505,-0.628 0.414,-0.614L0.418,-0.547Z" style="fill:rgb(53,53,53);fill-rule:nonzero;"></path></g><g transform="matrix(64,0,0,64,485.958,229.96)"><path d="M0.431,-0.558L0.491,-0.558L0.491,-0.729C0.458,-0.742 0.394,-0.76 0.308,-0.76C0.171,-0.76 0.085,-0.678 0.085,-0.555C0.085,-0.426 0.18,-0.385 0.273,-0.349C0.394,-0.302 0.45,-0.27 0.45,-0.185C0.45,-0.109 0.4,-0.055 0.284,-0.055C0.239,-0.055 0.188,-0.064 0.141,-0.081L0.129,-0.219L0.069,-0.219L0.069,-0.034C0.126,-0.008 0.194,0.01 0.286,0.01C0.424,0.01 0.534,-0.063 0.534,-0.196C0.534,-0.323 0.454,-0.365 0.313,-0.421C0.21,-0.462 0.166,-0.492 0.166,-0.571C0.166,-0.632 0.2,-0.696 0.304,-0.696C0.349,-0.696 0.388,-0.688 0.421,-0.675L0.431,-0.558Z" style="fill:rgb(53,53,53);fill-rule:nonzero;"></path></g><g transform="matrix(64,0,0,64,525.702,229.96)"><path d="M0.431,-0.558L0.491,-0.558L0.491,-0.729C0.458,-0.742 0.394,-0.76 0.308,-0.76C0.171,-0.76 0.085,-0.678 0.085,-0.555C0.085,-0.426 0.18,-0.385 0.273,-0.349C0.394,-0.302 0.45,-0.27 0.45,-0.185C0.45,-0.109 0.4,-0.055 0.284,-0.055C0.239,-0.055 0.188,-0.064 0.141,-0.081L0.129,-0.219L0.069,-0.219L0.069,-0.034C0.126,-0.008 0.194,0.01 0.286,0.01C0.424,0.01 0.534,-0.063 0.534,-0.196C0.534,-0.323 0.454,-0.365 0.313,-0.421C0.21,-0.462 0.166,-0.492 0.166,-0.571C0.166,-0.632 0.2,-0.696 0.304,-0.696C0.349,-0.696 0.388,-0.688 0.421,-0.675L0.431,-0.558Z" style="fill:rgb(53,53,53);fill-rule:nonzero;"></path></g><g transform="matrix(64,0,0,64,565.446,229.96)"><path d="M0.666,-0.197L0.606,-0.197L0.568,-0.062L0.252,-0.062L0.252,-0.69L0.402,-0.7L0.402,-0.75L0.06,-0.75L0.06,-0.7L0.17,-0.69L0.17,-0.06L0.064,-0.05L0.064,-0L0.631,-0L0.666,-0.197Z" style="fill:rgb(53,53,53);fill-rule:nonzero;"></path></g><g transform="matrix(64,0,0,64,610.31,229.96)"><path d="M0.153,-0.595C0.188,-0.594 0.223,-0.593 0.258,-0.593C0.29,-0.593 0.321,-0.594 0.353,-0.595C0.298,-0.51 0.231,-0.441 0.147,-0.374L0.146,-0.367L0.18,-0.32L0.19,-0.317C0.279,-0.387 0.338,-0.425 0.409,-0.425C0.476,-0.425 0.488,-0.397 0.496,-0.328C0.469,-0.317 0.441,-0.305 0.412,-0.292C0.341,-0.261 0.25,-0.203 0.25,-0.115C0.25,-0.015 0.326,0.028 0.476,0.028C0.623,0.028 0.715,0.022 0.791,0.015L0.789,-0.055C0.721,-0.047 0.616,-0.036 0.469,-0.036C0.362,-0.036 0.315,-0.054 0.315,-0.118C0.315,-0.173 0.385,-0.219 0.46,-0.249C0.473,-0.254 0.487,-0.26 0.501,-0.265C0.503,-0.224 0.504,-0.172 0.504,-0.124L0.573,-0.125C0.572,-0.18 0.57,-0.24 0.567,-0.29C0.665,-0.325 0.781,-0.362 0.894,-0.395C0.883,-0.423 0.865,-0.453 0.844,-0.478C0.839,-0.483 0.836,-0.486 0.83,-0.486C0.824,-0.486 0.819,-0.482 0.819,-0.47C0.819,-0.464 0.82,-0.457 0.822,-0.448C0.737,-0.417 0.655,-0.39 0.562,-0.354C0.554,-0.432 0.512,-0.478 0.437,-0.478C0.399,-0.478 0.355,-0.47 0.312,-0.447L0.309,-0.45C0.353,-0.488 0.389,-0.533 0.429,-0.598C0.528,-0.604 0.629,-0.614 0.741,-0.628L0.733,-0.69C0.633,-0.677 0.547,-0.667 0.465,-0.661C0.484,-0.696 0.504,-0.737 0.526,-0.785C0.497,-0.791 0.444,-0.799 0.435,-0.799C0.423,-0.799 0.417,-0.796 0.417,-0.791C0.417,-0.782 0.427,-0.774 0.443,-0.767C0.426,-0.727 0.409,-0.69 0.39,-0.656C0.35,-0.654 0.311,-0.653 0.27,-0.653C0.232,-0.653 0.193,-0.654 0.152,-0.656L0.153,-0.595Z" style="fill:rgb(53,53,53);fill-rule:nonzero;"></path></g><g transform="matrix(64,0,0,64,675.59,229.96)"><path d="M0.308,0.013L0.308,0.053L0.371,0.053L0.366,-0.067L0.366,-0.161L0.369,-0.237L0.364,-0.241L0.279,-0.237L0.184,-0.237L0.099,-0.241L0.094,-0.237L0.098,-0.161L0.098,-0.058L0.094,0.072L0.157,0.072L0.157,0.013L0.308,0.013ZM0.308,-0.036L0.157,-0.036L0.157,-0.188L0.308,-0.188L0.308,-0.036ZM0.818,-0.397L0.795,-0.375L0.573,-0.375L0.423,-0.379L0.423,-0.321L0.573,-0.325L0.785,-0.325C0.764,-0.245 0.723,-0.177 0.666,-0.123C0.617,-0.164 0.576,-0.219 0.547,-0.291L0.499,-0.265C0.529,-0.193 0.571,-0.134 0.622,-0.086C0.558,-0.038 0.479,-0.006 0.388,0.009C0.403,0.026 0.415,0.045 0.422,0.06C0.522,0.038 0.604,0.003 0.671,-0.046C0.746,0.007 0.838,0.041 0.947,0.055C0.952,0.04 0.963,0.012 0.974,-0.004C0.878,-0.017 0.79,-0.041 0.717,-0.086C0.778,-0.145 0.821,-0.221 0.849,-0.316C0.878,-0.322 0.884,-0.324 0.884,-0.333C0.884,-0.343 0.875,-0.355 0.83,-0.397L0.818,-0.397ZM0.191,-0.462L0.278,-0.462L0.368,-0.458L0.368,-0.519L0.278,-0.515L0.191,-0.515L0.101,-0.519L0.101,-0.458L0.191,-0.462ZM0.191,-0.323L0.278,-0.323L0.368,-0.319L0.368,-0.38L0.278,-0.376L0.191,-0.376L0.101,-0.38L0.101,-0.319L0.191,-0.323ZM0.193,-0.741L0.278,-0.741L0.368,-0.737L0.368,-0.798L0.278,-0.794L0.193,-0.794L0.103,-0.798L0.103,-0.737L0.193,-0.741ZM0.165,-0.601L0.304,-0.601L0.424,-0.597L0.424,-0.658L0.304,-0.654L0.165,-0.654L0.045,-0.658L0.045,-0.597L0.165,-0.601ZM0.576,-0.738L0.721,-0.738L0.721,-0.528C0.721,-0.46 0.735,-0.453 0.832,-0.453C0.939,-0.453 0.952,-0.473 0.957,-0.594C0.939,-0.597 0.918,-0.604 0.897,-0.615C0.894,-0.512 0.89,-0.506 0.833,-0.506C0.786,-0.506 0.783,-0.509 0.783,-0.534L0.783,-0.736C0.802,-0.744 0.809,-0.751 0.809,-0.76C0.809,-0.768 0.799,-0.778 0.753,-0.812L0.741,-0.812L0.716,-0.788L0.611,-0.788L0.515,-0.792L0.511,-0.788L0.515,-0.712L0.515,-0.651C0.515,-0.569 0.481,-0.512 0.4,-0.459C0.414,-0.45 0.431,-0.436 0.446,-0.417C0.537,-0.478 0.576,-0.549 0.576,-0.662L0.576,-0.738Z" style="fill:rgb(53,53,53);fill-rule:nonzero;"></path></g><g transform="matrix(64,0,0,64,740.87,229.96)"><path d="M0.476,-0.049C0.442,-0.058 0.415,-0.069 0.392,-0.082C0.339,-0.112 0.301,-0.153 0.271,-0.196C0.284,-0.234 0.294,-0.275 0.302,-0.32C0.328,-0.324 0.338,-0.329 0.338,-0.339C0.338,-0.351 0.32,-0.358 0.243,-0.375C0.242,-0.35 0.239,-0.32 0.234,-0.297C0.205,-0.157 0.151,-0.061 0.057,0.023C0.074,0.034 0.093,0.053 0.104,0.068C0.168,0.008 0.214,-0.056 0.247,-0.132C0.277,-0.092 0.31,-0.057 0.357,-0.028C0.416,0.009 0.508,0.034 0.686,0.034C0.758,0.034 0.834,0.033 0.935,0.03C0.942,0.005 0.95,-0.021 0.964,-0.041C0.851,-0.033 0.762,-0.029 0.684,-0.029C0.628,-0.029 0.58,-0.032 0.54,-0.037L0.54,-0.256L0.642,-0.256L0.792,-0.252L0.792,-0.315L0.642,-0.311L0.54,-0.311L0.54,-0.491L0.658,-0.491L0.808,-0.487L0.808,-0.55L0.658,-0.546L0.341,-0.546L0.191,-0.55L0.191,-0.487L0.341,-0.491L0.476,-0.491L0.476,-0.049ZM0.46,-0.723L0.226,-0.723L0.08,-0.727L0.076,-0.723L0.08,-0.625L0.076,-0.5L0.143,-0.5L0.143,-0.668L0.856,-0.668L0.856,-0.503L0.922,-0.503L0.918,-0.625L0.922,-0.723L0.918,-0.727L0.772,-0.723L0.526,-0.723L0.526,-0.799C0.551,-0.805 0.558,-0.812 0.558,-0.82C0.558,-0.83 0.544,-0.837 0.453,-0.842C0.458,-0.818 0.46,-0.794 0.46,-0.765L0.46,-0.723Z" style="fill:rgb(53,53,53);fill-rule:nonzero;"></path></g><g transform="matrix(64,0,0,64,806.15,229.96)"><path d="M0.588,-0.732L0.591,-0.794C0.562,-0.795 0.526,-0.796 0.504,-0.796C0.492,-0.796 0.486,-0.79 0.486,-0.783C0.486,-0.775 0.495,-0.769 0.52,-0.76C0.52,-0.72 0.521,-0.68 0.521,-0.64C0.417,-0.637 0.283,-0.631 0.099,-0.621L0.102,-0.557C0.284,-0.57 0.416,-0.577 0.522,-0.579C0.523,-0.54 0.523,-0.501 0.524,-0.462C0.506,-0.486 0.48,-0.493 0.455,-0.493C0.379,-0.493 0.29,-0.397 0.29,-0.3C0.29,-0.225 0.33,-0.184 0.415,-0.184C0.483,-0.184 0.523,-0.206 0.543,-0.237C0.538,-0.154 0.462,-0.048 0.261,-0.028C0.276,-0.006 0.287,0.014 0.294,0.034C0.532,-0 0.609,-0.113 0.609,-0.281C0.609,-0.324 0.603,-0.359 0.588,-0.4L0.588,-0.581L0.626,-0.581C0.705,-0.581 0.785,-0.58 0.897,-0.573L0.898,-0.638C0.807,-0.641 0.715,-0.641 0.624,-0.641L0.588,-0.641L0.588,-0.732ZM0.452,-0.433C0.478,-0.433 0.518,-0.412 0.531,-0.343C0.528,-0.288 0.495,-0.244 0.432,-0.244C0.37,-0.244 0.35,-0.262 0.35,-0.307C0.35,-0.375 0.414,-0.433 0.452,-0.433Z" style="fill:rgb(53,53,53);fill-rule:nonzero;"></path></g><g transform="matrix(64,0,0,64,865.67,229.96)"><path d="M0.368,-0.425L0.425,-0.466C0.504,-0.535 0.571,-0.6 0.661,-0.681C0.694,-0.692 0.704,-0.695 0.704,-0.707C0.704,-0.715 0.696,-0.731 0.645,-0.773L0.636,-0.773L0.614,-0.755C0.494,-0.738 0.344,-0.728 0.219,-0.726L0.222,-0.659C0.355,-0.662 0.46,-0.671 0.563,-0.685C0.424,-0.555 0.319,-0.452 0.147,-0.279L0.147,-0.271L0.191,-0.231L0.2,-0.232C0.316,-0.355 0.426,-0.408 0.551,-0.408C0.698,-0.408 0.757,-0.322 0.757,-0.245C0.757,-0.109 0.64,-0.034 0.472,-0.034C0.385,-0.034 0.329,-0.064 0.329,-0.117C0.329,-0.144 0.364,-0.169 0.398,-0.169C0.444,-0.169 0.486,-0.132 0.517,-0.053L0.575,-0.087C0.547,-0.166 0.478,-0.229 0.396,-0.229C0.327,-0.229 0.267,-0.186 0.267,-0.115C0.267,-0.035 0.34,0.029 0.478,0.029C0.702,0.029 0.833,-0.083 0.833,-0.24C0.833,-0.384 0.716,-0.466 0.564,-0.466C0.504,-0.466 0.446,-0.454 0.371,-0.42L0.368,-0.425Z" style="fill:rgb(53,53,53);fill-rule:nonzero;"></path></g><g transform="matrix(64,0,0,64,929.03,229.96)"><path d="M0.46,-0.676L0.201,-0.676L0.051,-0.68L0.051,-0.615L0.201,-0.619L0.398,-0.619C0.396,-0.245 0.267,-0.082 0.034,0.008C0.054,0.023 0.069,0.039 0.083,0.062C0.28,-0.023 0.398,-0.154 0.444,-0.384L0.755,-0.384C0.753,-0.248 0.747,-0.15 0.726,-0.071C0.715,-0.03 0.684,-0.012 0.642,-0.012C0.603,-0.012 0.566,-0.014 0.52,-0.018C0.535,0.008 0.541,0.026 0.547,0.055L0.617,0.055C0.729,0.055 0.773,0.022 0.792,-0.057C0.813,-0.143 0.817,-0.237 0.822,-0.353L0.826,-0.441L0.822,-0.445L0.706,-0.441L0.453,-0.441C0.462,-0.5 0.462,-0.559 0.465,-0.619L0.798,-0.619L0.948,-0.615L0.948,-0.68L0.798,-0.676L0.527,-0.676L0.527,-0.782C0.552,-0.788 0.56,-0.795 0.56,-0.805C0.56,-0.815 0.546,-0.821 0.452,-0.828C0.457,-0.804 0.46,-0.78 0.46,-0.751L0.46,-0.676Z" style="fill:rgb(53,53,53);fill-rule:nonzero;"></path></g><g transform="matrix(64,0,0,64,994.95,229.96)"><path d="M0.817,-0.338L0.967,-0.334L0.967,-0.396L0.817,-0.392L0.629,-0.392L0.629,-0.577L0.75,-0.577L0.9,-0.573L0.9,-0.635L0.75,-0.631L0.629,-0.631L0.629,-0.784C0.656,-0.791 0.663,-0.799 0.663,-0.808C0.663,-0.818 0.65,-0.825 0.558,-0.83C0.563,-0.806 0.565,-0.782 0.565,-0.753L0.565,-0.631L0.456,-0.631L0.306,-0.635L0.306,-0.573L0.456,-0.577L0.565,-0.577L0.565,-0.392L0.405,-0.392L0.255,-0.396L0.255,-0.334L0.405,-0.338L0.526,-0.338C0.491,-0.24 0.453,-0.143 0.407,-0.049C0.379,-0.047 0.35,-0.046 0.323,-0.045C0.299,-0.044 0.277,-0.045 0.251,-0.047C0.277,0.037 0.289,0.05 0.298,0.05C0.307,0.05 0.314,0.043 0.318,0.021C0.507,0.005 0.664,-0.01 0.826,-0.034C0.846,-0.003 0.865,0.029 0.883,0.063L0.944,0.029C0.885,-0.071 0.826,-0.155 0.748,-0.239L0.696,-0.209C0.731,-0.169 0.764,-0.127 0.794,-0.084C0.689,-0.071 0.585,-0.062 0.48,-0.053C0.525,-0.146 0.564,-0.241 0.598,-0.338L0.817,-0.338ZM0.274,-0.717C0.231,-0.75 0.188,-0.777 0.141,-0.798L0.102,-0.752C0.147,-0.728 0.19,-0.699 0.23,-0.665L0.274,-0.717ZM0.21,-0.481C0.168,-0.514 0.127,-0.539 0.081,-0.561L0.042,-0.512C0.086,-0.488 0.126,-0.461 0.166,-0.426L0.21,-0.481ZM0.063,-0C0.111,0.047 0.126,0.052 0.139,0.052C0.146,0.052 0.149,0.047 0.149,0.038C0.149,0.031 0.147,0.022 0.144,0.011C0.18,-0.08 0.213,-0.18 0.238,-0.27C0.221,-0.279 0.197,-0.293 0.18,-0.307C0.152,-0.197 0.13,-0.126 0.092,-0.044C0.082,-0.022 0.077,-0.014 0.063,-0Z" style="fill:rgb(53,53,53);fill-rule:nonzero;"></path></g></g><g transform="matrix(1.07584,0,0,1.22864,-98.5598,-57.9041)"><g transform="matrix(1.4758,0,0,1.1076,128.941,-27.5456)"><rect x="566" y="256" width="392" height="35" style="fill:rgb(36,150,211);"></rect></g><g transform="matrix(1,0,0,1,548.636,-55.6012)"><g transform="matrix(23.8378,0,0,23.8378,607.308,340.066)"><path d="M0.545,-0.8L0.545,-0.461L0.854,-0.461L0.854,-0.006C0.854,0.017 0.848,0.017 0.795,0.017C0.77,0.017 0.737,0.016 0.703,0.015C0.713,0.034 0.722,0.065 0.725,0.084C0.882,0.084 0.92,0.08 0.92,-0.006L0.92,-0.8L0.545,-0.8ZM0.854,-0.659L0.61,-0.659L0.61,-0.747L0.854,-0.747L0.854,-0.659ZM0.61,-0.609L0.854,-0.609L0.854,-0.514L0.61,-0.514L0.61,-0.609ZM0.451,-0.8L0.085,-0.8L0.085,0.086L0.151,0.086L0.151,-0.462L0.451,-0.462L0.451,-0.8ZM0.387,-0.659L0.151,-0.659L0.151,-0.747L0.387,-0.747L0.387,-0.659ZM0.151,-0.609L0.387,-0.609L0.387,-0.515L0.151,-0.515L0.151,-0.609ZM0.774,-0.222L0.632,-0.222L0.632,-0.339L0.752,-0.339L0.752,-0.396L0.247,-0.396L0.247,-0.339L0.36,-0.339L0.36,-0.222L0.227,-0.222L0.227,-0.165L0.358,-0.165C0.352,-0.106 0.323,-0.022 0.235,0.033C0.25,0.043 0.27,0.062 0.28,0.075C0.379,0.009 0.411,-0.1 0.418,-0.165L0.571,-0.165L0.571,0.066L0.632,0.066L0.632,-0.165L0.774,-0.165L0.774,-0.222ZM0.42,-0.339L0.571,-0.339L0.571,-0.222L0.42,-0.222L0.42,-0.339Z" style="fill:white;fill-rule:nonzero;"></path></g><g transform="matrix(23.8378,0,0,23.8378,631.623,340.066)"><path d="M0.773,-0.835C0.74,-0.797 0.687,-0.747 0.641,-0.71C0.615,-0.751 0.593,-0.795 0.575,-0.841L0.516,-0.823C0.568,-0.689 0.65,-0.57 0.751,-0.481L0.259,-0.481C0.347,-0.558 0.422,-0.656 0.465,-0.769C0.47,-0.771 0.475,-0.775 0.476,-0.78C0.466,-0.784 0.455,-0.789 0.429,-0.804L0.417,-0.8L0.116,-0.8L0.116,-0.74L0.38,-0.74C0.354,-0.686 0.319,-0.636 0.278,-0.59C0.246,-0.622 0.194,-0.664 0.151,-0.694L0.108,-0.658C0.152,-0.625 0.204,-0.58 0.236,-0.547C0.172,-0.486 0.099,-0.438 0.028,-0.408C0.042,-0.395 0.061,-0.373 0.07,-0.357C0.121,-0.381 0.173,-0.412 0.221,-0.449L0.221,-0.417L0.333,-0.417L0.333,-0.258L0.094,-0.258L0.094,-0.195L0.326,-0.195C0.309,-0.107 0.251,-0.023 0.074,0.037C0.089,0.049 0.109,0.074 0.117,0.09C0.318,0.019 0.379,-0.084 0.395,-0.195L0.588,-0.195L0.588,-0.022C0.588,0.056 0.609,0.077 0.691,0.077L0.828,0.077C0.901,0.077 0.919,0.041 0.926,-0.088C0.908,-0.093 0.88,-0.104 0.865,-0.116C0.861,-0.005 0.856,0.015 0.823,0.015L0.699,0.015C0.663,0.015 0.657,0.01 0.657,-0.022L0.657,-0.195L0.903,-0.195L0.903,-0.258L0.657,-0.258L0.657,-0.417L0.783,-0.417L0.783,-0.455C0.829,-0.419 0.878,-0.389 0.93,-0.366C0.94,-0.384 0.961,-0.409 0.976,-0.423C0.905,-0.451 0.838,-0.493 0.78,-0.545C0.831,-0.582 0.895,-0.632 0.933,-0.668C0.941,-0.667 0.95,-0.668 0.954,-0.673L0.893,-0.718C0.855,-0.677 0.792,-0.621 0.741,-0.582C0.716,-0.608 0.692,-0.636 0.671,-0.666C0.719,-0.701 0.777,-0.749 0.814,-0.784C0.823,-0.783 0.831,-0.785 0.834,-0.79L0.773,-0.835ZM0.4,-0.258L0.4,-0.417L0.588,-0.417L0.588,-0.258L0.4,-0.258Z" style="fill:white;fill-rule:nonzero;"></path></g><g transform="matrix(23.8378,0,0,23.8378,655.937,340.066)"><path d="M0.391,-0.809L0.391,-0.602L0.915,-0.602L0.915,-0.809L0.391,-0.809ZM0.598,-0.653L0.598,-0.758L0.701,-0.758L0.701,-0.653L0.598,-0.653ZM0.448,-0.653L0.448,-0.758L0.548,-0.758L0.548,-0.653L0.448,-0.653ZM0.751,-0.653L0.751,-0.758L0.856,-0.758L0.856,-0.653L0.751,-0.653ZM0.886,-0.212L0.886,-0.426L0.418,-0.426L0.418,-0.212L0.598,-0.212C0.512,-0.134 0.382,-0.063 0.271,-0.027C0.285,-0.014 0.303,0.007 0.312,0.022C0.389,-0.008 0.477,-0.054 0.554,-0.11L0.554,0.085L0.618,0.085L0.618,-0.16C0.626,-0.167 0.633,-0.173 0.64,-0.18C0.696,-0.057 0.795,0.042 0.921,0.086C0.931,0.07 0.95,0.046 0.965,0.033C0.894,0.012 0.832,-0.026 0.781,-0.074C0.829,-0.096 0.891,-0.128 0.929,-0.152C0.932,-0.151 0.934,-0.151 0.937,-0.151C0.942,-0.151 0.946,-0.153 0.949,-0.156L0.891,-0.2C0.856,-0.173 0.796,-0.134 0.749,-0.108C0.722,-0.14 0.7,-0.175 0.683,-0.212L0.886,-0.212ZM0.823,-0.371L0.823,-0.267L0.479,-0.267L0.479,-0.371L0.823,-0.371ZM0.23,-0.18L0.23,-0.419L0.34,-0.419L0.34,-0.48L0.23,-0.48L0.23,-0.712L0.359,-0.712L0.359,-0.773L0.04,-0.773L0.04,-0.712L0.168,-0.712L0.168,-0.48L0.052,-0.48L0.052,-0.419L0.168,-0.419L0.168,-0.165C0.115,-0.153 0.067,-0.142 0.028,-0.134L0.054,-0.059C0.061,-0.061 0.066,-0.067 0.067,-0.075C0.14,-0.093 0.256,-0.123 0.366,-0.152L0.359,-0.21L0.23,-0.18ZM0.345,-0.486L0.97,-0.486L0.97,-0.543L0.345,-0.543L0.345,-0.486Z" style="fill:white;fill-rule:nonzero;"></path></g><g transform="matrix(23.8378,0,0,23.8378,680.252,340.066)"><path d="M0.768,-0.166L0.773,-0.167L0.903,-0.167L0.903,-0.464L0.413,-0.464L0.413,-0.167L0.704,-0.167L0.704,-0.005C0.704,0.06 0.721,0.078 0.79,0.078L0.893,0.078C0.95,0.078 0.967,0.051 0.974,-0.061C0.956,-0.065 0.93,-0.075 0.917,-0.086C0.914,0.007 0.909,0.019 0.885,0.019L0.798,0.019C0.773,0.019 0.768,0.015 0.768,-0.006L0.768,-0.166ZM0.837,-0.416L0.837,-0.339L0.477,-0.339L0.477,-0.416L0.837,-0.416ZM0.837,-0.293L0.837,-0.214L0.477,-0.214L0.477,-0.293L0.837,-0.293ZM0.232,-0.532L0.34,-0.532L0.34,-0.519L0.968,-0.519L0.968,-0.577L0.784,-0.577C0.802,-0.607 0.823,-0.648 0.837,-0.676C0.848,-0.676 0.855,-0.679 0.857,-0.685L0.793,-0.704L0.944,-0.704L0.944,-0.76L0.685,-0.76L0.685,-0.826C0.699,-0.828 0.704,-0.833 0.705,-0.84L0.619,-0.845L0.619,-0.76L0.376,-0.76L0.376,-0.704L0.778,-0.704C0.766,-0.669 0.744,-0.619 0.726,-0.586L0.752,-0.577L0.534,-0.577C0.542,-0.579 0.555,-0.583 0.577,-0.588C0.571,-0.62 0.552,-0.669 0.529,-0.703L0.472,-0.689C0.492,-0.654 0.509,-0.609 0.516,-0.577L0.34,-0.577L0.34,-0.596L0.232,-0.596L0.232,-0.816C0.245,-0.818 0.251,-0.822 0.252,-0.829L0.168,-0.835L0.168,-0.596L0.047,-0.596L0.047,-0.532L0.168,-0.532L0.168,-0.198C0.116,-0.18 0.068,-0.163 0.03,-0.151L0.064,-0.075C0.07,-0.077 0.075,-0.083 0.076,-0.091C0.147,-0.118 0.258,-0.162 0.364,-0.205C0.358,-0.237 0.355,-0.251 0.352,-0.264L0.232,-0.221L0.232,-0.532ZM0.518,-0.16C0.497,-0.062 0.442,-0.001 0.275,0.031C0.289,0.044 0.307,0.072 0.314,0.088C0.496,0.045 0.553,-0.033 0.581,-0.138C0.592,-0.14 0.598,-0.145 0.6,-0.151L0.518,-0.16Z" style="fill:white;fill-rule:nonzero;"></path></g><g transform="matrix(23.8378,0,0,23.8378,704.566,340.066)"><path d="M0.5,-0.483C0.443,-0.483 0.397,-0.437 0.397,-0.38C0.397,-0.323 0.443,-0.277 0.5,-0.277C0.557,-0.277 0.603,-0.323 0.603,-0.38C0.603,-0.435 0.559,-0.483 0.5,-0.483Z" style="fill:white;fill-rule:nonzero;"></path></g><g transform="matrix(23.8378,0,0,23.8378,728.881,340.066)"><path d="M0.411,-0.74C0.435,-0.656 0.457,-0.536 0.463,-0.457L0.534,-0.468C0.529,-0.545 0.504,-0.669 0.481,-0.752L0.411,-0.74ZM0.819,-0.713C0.72,-0.349 0.563,-0.148 0.257,-0.019C0.272,-0.005 0.295,0.022 0.305,0.036C0.618,-0.101 0.782,-0.317 0.887,-0.67C0.9,-0.67 0.91,-0.674 0.913,-0.683L0.819,-0.713ZM0.099,-0.674C0.137,-0.596 0.179,-0.477 0.193,-0.407L0.26,-0.429C0.246,-0.501 0.202,-0.621 0.164,-0.695L0.099,-0.674Z" style="fill:white;fill-rule:nonzero;"></path></g><g transform="matrix(23.8378,0,0,23.8378,753.196,340.066)"><path d="M0.083,-0.343C0.096,-0.345 0.109,-0.352 0.115,-0.362L0.912,-0.362L0.912,-0.433L0.077,-0.433L0.083,-0.343Z" style="fill:white;fill-rule:nonzero;"></path></g><g transform="matrix(23.8378,0,0,23.8378,777.51,340.066)"><path d="M0.565,-0.765C0.579,-0.767 0.586,-0.775 0.587,-0.784L0.494,-0.789L0.494,-0.055L0.483,-0.04L0.535,0.026C0.542,0.022 0.549,0.014 0.552,0.006C0.765,-0.095 0.889,-0.244 0.96,-0.446C0.943,-0.455 0.913,-0.472 0.898,-0.485C0.84,-0.31 0.732,-0.164 0.565,-0.083L0.565,-0.765ZM0.211,-0.668C0.208,-0.399 0.19,-0.149 0.041,0.013C0.061,0.024 0.085,0.039 0.101,0.051C0.255,-0.128 0.277,-0.373 0.283,-0.642C0.296,-0.644 0.305,-0.65 0.306,-0.659L0.211,-0.668Z" style="fill:white;fill-rule:nonzero;"></path></g></g></g></g><g transform="matrix(0.673102,0,0,0.768706,1169.28,375.208)"><g transform="matrix(0.58,0,0,0.58,40,14)"><g transform="matrix(2.06186,0,0,2.06186,-51.3621,-152.271)"><circle cx="49.161" cy="98.101" r="24.25" style="fill:rgb(36,150,211);"></circle></g><g transform="matrix(0.280038,0,0,0.280038,-1108.62,-1461.03)"><path d="M4036.6,5339.22C4036.57,5338.23 4036.58,5337.23 4036.63,5336.22C4038.32,5300.08 4063.04,5266.17 4097.95,5253.85C4107.85,5250.36 4118.4,5248.62 4128.83,5248.64C4161.97,5248.83 4194.49,5268.09 4210.19,5298.26C4224.97,5326.66 4223.56,5362.8 4206.06,5390.15C4198.02,5402.72 4186.77,5413.35 4173.92,5420.66C4173.55,5420.87 4173.18,5421.06 4172.79,5421.24C4171.57,5422.11 4170.35,5422.96 4169.22,5423.85C4155.72,5434.54 4150.78,5454.79 4158.25,5470.53C4166.52,5487.94 4188.92,5497.64 4208.03,5489.55C4225.49,5482.17 4235.66,5460.87 4229.7,5442.19C4229.7,5442.19 4228.44,5437.16 4229.47,5433.25C4231.95,5423.82 4244.36,5418.32 4253.18,5423.61C4257.82,5426.4 4260.16,5431.64 4261.55,5437.29C4266.64,5458.09 4261.62,5481.14 4248.25,5497.93C4228.63,5522.59 4191.75,5531.71 4162.5,5517.61C4141.32,5507.4 4125.9,5485.99 4123.07,5462.59C4119.84,5435.82 4133.36,5407.9 4156.6,5393.74C4156.66,5393.69 4156.73,5393.65 4156.8,5393.61C4164.55,5388.61 4172.08,5382.9 4177.45,5375.35C4189.08,5359.01 4191.74,5336.68 4184.09,5317.98C4172.56,5289.76 4137.61,5272.75 4106.88,5284.66C4084.6,5293.3 4068.62,5316.16 4068.52,5340.44C4068.52,5340.44 4068.52,5340.47 4068.52,5340.53L4068.52,5340.77L4068.52,5488C4068.52,5488.1 4068.51,5488.2 4068.51,5488.29C4068.53,5488.43 4068.55,5488.56 4068.56,5488.7C4069.13,5492.81 4077.51,5494.31 4077.52,5488.04L4077.52,5488.03L4077.52,5488L4077.52,5340.77C4077.56,5339.53 4077.62,5338.73 4077.71,5338.12C4077.73,5334.18 4078.46,5330.03 4079.64,5326.08C4085.79,5305.42 4105.65,5289.86 4128.19,5289.64C4128.52,5289.64 4128.52,5289.64 4128.86,5289.64C4148.51,5289.83 4167.31,5302.05 4175.26,5320.21C4181.85,5335.27 4180.6,5353.49 4171.83,5367.57C4167.03,5375.28 4160.26,5381.86 4152.07,5385.87C4142.21,5390.7 4128.08,5382.41 4129.08,5370.2C4129.54,5364.6 4133.41,5359.85 4138.29,5356.93C4145.79,5352.37 4149.52,5342.4 4146.29,5333.89C4142.59,5324.13 4129.97,5318.85 4120.3,5323.51C4113.91,5326.58 4109.54,5333.36 4109.52,5340.67L4109.52,5340.7L4109.52,5340.77L4109.52,5488C4109.52,5488.09 4109.52,5488.17 4109.51,5488.26C4109.52,5488.51 4109.52,5488.76 4109.51,5489.01C4109.1,5505.07 4096.77,5520.15 4081.04,5523.69C4065.01,5527.29 4047.18,5519.23 4039.85,5503.31C4037.91,5499.09 4036.68,5494.31 4036.62,5489.77C4036.54,5489.04 4036.55,5488.8 4036.52,5488L4036.52,5340.77C4036.54,5340.05 4036.54,5339.78 4036.6,5339.22ZM4220.9,5389.66C4230.83,5389.66 4238.9,5397.73 4238.9,5407.66C4238.9,5417.6 4230.83,5425.66 4220.9,5425.66C4210.96,5425.66 4202.9,5417.6 4202.9,5407.66C4202.9,5397.73 4210.96,5389.66 4220.9,5389.66Z" style="fill:white;fill-rule:nonzero;"></path></g></g><g transform="matrix(1.24431,0,0,1.24431,-58.0289,-7.12995)"><g transform="matrix(43.3976,0,0,43.3976,127.77,52.5584)"><path d="M0.288,-0.394C0.276,-0.394 0.264,-0.391 0.252,-0.385C0.24,-0.379 0.229,-0.371 0.22,-0.361C0.211,-0.35 0.203,-0.338 0.197,-0.323C0.191,-0.308 0.188,-0.292 0.188,-0.274L0.188,-0L0.074,-0L0.074,-0.252C0.074,-0.292 0.071,-0.325 0.066,-0.353C0.061,-0.38 0.055,-0.401 0.049,-0.418C0.042,-0.437 0.034,-0.453 0.025,-0.465L0.115,-0.501C0.121,-0.494 0.127,-0.485 0.134,-0.474C0.139,-0.465 0.145,-0.454 0.15,-0.441C0.155,-0.428 0.16,-0.413 0.163,-0.396C0.176,-0.435 0.196,-0.463 0.221,-0.48C0.246,-0.497 0.275,-0.505 0.307,-0.505C0.322,-0.505 0.337,-0.503 0.35,-0.5C0.363,-0.496 0.37,-0.494 0.369,-0.494L0.337,-0.383C0.338,-0.383 0.334,-0.385 0.326,-0.389C0.317,-0.392 0.305,-0.394 0.288,-0.394Z" style="fill:rgb(136,136,136);fill-rule:nonzero;"></path></g><g transform="matrix(43.3976,0,0,43.3976,142.915,52.5584)"><path d="M0.17,0.004C0.135,0.004 0.108,-0.007 0.089,-0.028C0.07,-0.049 0.061,-0.076 0.061,-0.109L0.061,-0.498L0.175,-0.498L0.175,-0.119C0.175,-0.104 0.177,-0.093 0.182,-0.088C0.187,-0.083 0.194,-0.08 0.203,-0.08L0.212,-0.08C0.215,-0.08 0.217,-0.08 0.22,-0.081C0.223,-0.081 0.226,-0.081 0.229,-0.082L0.241,-0.01C0.236,-0.007 0.23,-0.005 0.223,-0.003C0.217,-0.001 0.21,0.001 0.201,0.002C0.192,0.003 0.181,0.004 0.17,0.004ZM0.12,-0.72C0.141,-0.72 0.158,-0.714 0.169,-0.701C0.18,-0.688 0.186,-0.672 0.186,-0.652C0.186,-0.632 0.18,-0.615 0.169,-0.602C0.157,-0.589 0.14,-0.582 0.117,-0.582C0.096,-0.582 0.079,-0.588 0.068,-0.602C0.056,-0.615 0.05,-0.63 0.05,-0.649C0.05,-0.67 0.056,-0.687 0.068,-0.7C0.079,-0.713 0.097,-0.72 0.12,-0.72Z" style="fill:rgb(136,136,136);fill-rule:nonzero;"></path></g><g transform="matrix(43.3976,0,0,43.3976,151.855,52.5584)"><path d="M0.469,-0.498L0.471,-0.49C0.472,-0.484 0.473,-0.476 0.474,-0.467C0.475,-0.457 0.476,-0.446 0.478,-0.434C0.479,-0.421 0.479,-0.409 0.479,-0.396C0.479,-0.322 0.474,-0.26 0.463,-0.209C0.452,-0.158 0.435,-0.116 0.413,-0.085C0.39,-0.053 0.362,-0.03 0.328,-0.016C0.293,-0.002 0.253,0.005 0.206,0.005C0.153,0.005 0.116,-0.01 0.094,-0.041C0.071,-0.071 0.06,-0.113 0.06,-0.166L0.06,-0.498L0.174,-0.498L0.174,-0.169C0.174,-0.141 0.179,-0.118 0.189,-0.101C0.199,-0.084 0.216,-0.075 0.24,-0.075C0.264,-0.075 0.284,-0.084 0.3,-0.102C0.316,-0.12 0.329,-0.143 0.338,-0.173C0.347,-0.202 0.354,-0.235 0.358,-0.272C0.362,-0.309 0.364,-0.346 0.364,-0.384C0.364,-0.398 0.364,-0.412 0.363,-0.426C0.362,-0.439 0.36,-0.451 0.359,-0.462C0.357,-0.473 0.356,-0.481 0.355,-0.488L0.353,-0.498L0.469,-0.498Z" style="fill:rgb(136,136,136);fill-rule:nonzero;"></path></g><g transform="matrix(43.3976,0,0,43.3976,172.426,52.5584)"><path d="M0.035,-0.237C0.035,-0.282 0.041,-0.321 0.054,-0.355C0.066,-0.389 0.083,-0.418 0.105,-0.441C0.126,-0.464 0.152,-0.481 0.181,-0.493C0.21,-0.504 0.242,-0.51 0.276,-0.51C0.306,-0.51 0.331,-0.506 0.353,-0.499C0.374,-0.492 0.391,-0.482 0.404,-0.469C0.417,-0.456 0.427,-0.441 0.434,-0.424C0.44,-0.407 0.443,-0.388 0.443,-0.368C0.443,-0.344 0.436,-0.321 0.423,-0.3C0.41,-0.278 0.391,-0.259 0.366,-0.243C0.341,-0.226 0.31,-0.213 0.275,-0.204C0.24,-0.194 0.2,-0.189 0.156,-0.188C0.158,-0.173 0.161,-0.158 0.166,-0.145C0.17,-0.131 0.176,-0.119 0.185,-0.109C0.193,-0.098 0.204,-0.09 0.217,-0.084C0.23,-0.078 0.247,-0.075 0.267,-0.075C0.282,-0.075 0.297,-0.077 0.314,-0.08C0.331,-0.083 0.346,-0.087 0.36,-0.092C0.377,-0.097 0.393,-0.103 0.409,-0.11L0.439,-0.039C0.422,-0.03 0.403,-0.023 0.383,-0.016C0.366,-0.01 0.346,-0.005 0.323,-0C0.3,0.005 0.276,0.007 0.251,0.007C0.212,0.007 0.179,0.001 0.152,-0.011C0.125,-0.022 0.102,-0.039 0.085,-0.06C0.068,-0.081 0.055,-0.107 0.047,-0.137C0.039,-0.167 0.035,-0.2 0.035,-0.237ZM0.267,-0.432C0.245,-0.432 0.227,-0.427 0.213,-0.417C0.198,-0.406 0.187,-0.393 0.178,-0.377C0.169,-0.36 0.163,-0.342 0.16,-0.322C0.156,-0.301 0.154,-0.281 0.153,-0.26C0.185,-0.261 0.212,-0.266 0.235,-0.273C0.257,-0.28 0.275,-0.288 0.289,-0.299C0.303,-0.309 0.313,-0.32 0.32,-0.332C0.326,-0.344 0.329,-0.356 0.329,-0.368C0.329,-0.387 0.323,-0.403 0.312,-0.415C0.301,-0.426 0.286,-0.432 0.267,-0.432Z" style="fill:rgb(136,136,136);fill-rule:nonzero;"></path></g><g transform="matrix(43.3976,0,0,43.3976,191.217,52.5584)"><path d="M0.288,-0.394C0.276,-0.394 0.264,-0.391 0.252,-0.385C0.24,-0.379 0.229,-0.371 0.22,-0.361C0.211,-0.35 0.203,-0.338 0.197,-0.323C0.191,-0.308 0.188,-0.292 0.188,-0.274L0.188,-0L0.074,-0L0.074,-0.252C0.074,-0.292 0.071,-0.325 0.066,-0.353C0.061,-0.38 0.055,-0.401 0.049,-0.418C0.042,-0.437 0.034,-0.453 0.025,-0.465L0.115,-0.501C0.121,-0.494 0.127,-0.485 0.134,-0.474C0.139,-0.465 0.145,-0.454 0.15,-0.441C0.155,-0.428 0.16,-0.413 0.163,-0.396C0.176,-0.435 0.196,-0.463 0.221,-0.48C0.246,-0.497 0.275,-0.505 0.307,-0.505C0.322,-0.505 0.337,-0.503 0.35,-0.5C0.363,-0.496 0.37,-0.494 0.369,-0.494L0.337,-0.383C0.338,-0.383 0.334,-0.385 0.326,-0.389C0.317,-0.392 0.305,-0.394 0.288,-0.394Z" style="fill:rgb(136,136,136);fill-rule:nonzero;"></path></g></g></g></g></g></g></svg> 